<svg width="184" height="43" viewBox="0 0 184 43" fill="none" xmlns="http://www.w3.org/2000/svg">
<path d="M6.69092 2.07322C5.55043 3.37858 5.85456 3.7625 10.6446 8.06251L15.8149 12.6696L12.6975 13.5911C9.35208 14.5893 9.20001 14.5125 5.17026 10.8268C3.11737 8.98394 3.04133 8.98394 1.52067 10.3661C1.26958e-05 11.7482 1.28746e-05 11.7482 2.9653 14.3589L6.00662 16.9696L4.18183 19.6571C-3.57354 31.2518 7.37522 46.0714 20.8331 42.2321C24.7868 41.1571 29.1967 37.0107 30.4893 33.2482C31.7818 29.2554 31.0215 22.8821 28.8926 19.8107C27.3719 17.5839 9.88431 1.45894 8.43968 0.921436C8.13555 0.84465 7.29919 1.30537 6.69092 2.07322ZM18.5521 18.5821C19.1603 19.6571 19.0843 20.1946 18.0959 21.1929C15.8149 23.4964 12.3934 20.5018 14.4463 17.9679C15.6628 16.5857 17.4116 16.8161 18.5521 18.5821ZM11.0248 23.3429C12.3174 24.2643 12.3934 24.725 11.557 26.4143C11.1008 27.4893 10.0364 28.4107 9.27605 28.4107C6.31076 28.4107 4.94216 24.5714 7.45125 23.1125C9.12398 22.0375 9.35208 22.1143 11.0248 23.3429ZM25.6992 23.1893C26.9917 24.4946 26.8397 26.4911 25.3951 27.7196C23.038 29.7161 20.0727 25.8 22.0496 23.4196C23.1901 22.0375 24.4827 21.9607 25.6992 23.1893ZM17.4876 28.0268C17.4876 28.6411 16.9554 29.1786 16.3471 29.1786C15.7389 29.1786 15.2066 28.6411 15.2066 28.0268C15.2066 27.4125 15.7389 26.875 16.3471 26.875C16.9554 26.875 17.4876 27.4125 17.4876 28.0268ZM14.0661 34.1696C14.0661 35.9357 13.686 36.55 12.4694 36.7036C10.4165 37.0107 8.89588 35.0911 9.50414 33.0179C9.88431 31.7893 10.5686 31.4821 12.0132 31.6357C13.762 31.7893 14.0661 32.25 14.0661 34.1696ZM23.1901 34.1696C23.1901 36.0893 22.886 36.4732 21.3653 36.4732C19.2364 36.4732 17.7917 34.5536 18.476 32.7107C18.8562 31.7893 19.6926 31.4821 21.0612 31.6357C22.886 31.8661 23.1901 32.25 23.1901 34.1696Z" fill="#363636"/>
<path d="M38.929 12.5161C37.5604 13.975 37.2562 15.2036 37.2562 19.2732C37.2562 23.5732 37.5604 24.5714 39.005 25.9536C40.6017 27.4893 41.5901 27.6429 50.0298 27.6429H59.3058V30.3304V33.0179H48.281H37.2562V35.7054V38.3929H49.6496C64.7042 38.3929 64.6281 38.3929 64.6281 30.1768C64.6281 25.5696 64.4 24.5714 62.8794 23.1893C61.2827 21.6536 60.2942 21.5 52.2347 21.5H43.3389V18.8125V16.125H53.9835H64.6281V13.4375V10.75H52.6149C40.9818 10.75 40.5256 10.8268 38.929 12.5161Z" fill="#363636"/>
<path d="M68.4298 23.2661C68.4298 38.8536 68.1256 38.3929 78.4661 38.3929C88.5025 38.3929 88.1984 38.8536 88.1984 23.1893V10.75H85.5372H82.876V21.8839V33.0179H78.3141H73.7521V21.8839V10.75H71.0909H68.4298V23.2661Z" fill="#363636"/>
<path d="M92 24.5714V38.3929H100.592C111.008 38.3929 111.769 37.9321 111.769 31.4821C111.769 28.7179 111.388 26.9518 110.476 25.9536C109.336 24.6482 109.336 24.4946 110.476 23.1893C111.388 22.1911 111.769 20.425 111.769 17.5071C111.769 11.2875 110.932 10.75 100.516 10.75H92V24.5714ZM106.446 18.8125V21.5H101.884H97.3223V18.8125V16.125H101.884H106.446V18.8125ZM106.446 30.3304V33.0179H101.884H97.3223V30.3304V27.6429H101.884H106.446V30.3304Z" fill="#363636"/>
<path d="M115.57 24.5714V38.3929H124.542C136.555 38.3929 136.099 38.9304 136.099 24.4179C136.099 10.2125 136.555 10.75 124.466 10.75H115.57V24.5714ZM130.397 24.5714V32.6339H125.835H121.273L121.045 25.4161C120.969 21.4232 121.045 17.6607 121.197 17.1232C121.501 16.3554 122.869 16.125 125.987 16.2786L130.397 16.5089V24.5714Z" fill="#363636"/>
<path d="M141.193 12.1321C140.129 13.3607 139.901 15.5107 139.901 25.9536V38.3929H142.562H145.223V33.0179V27.6429H149.785H154.347V33.0179V38.3929H157.008H159.669V25.8768C159.669 10.2893 159.974 10.75 149.633 10.75C143.626 10.75 142.182 10.9804 141.193 12.1321ZM154.195 18.9661L154.423 21.5H149.861H145.223V18.8125V16.0482L149.633 16.2786C153.891 16.5089 153.967 16.5089 154.195 18.9661Z" fill="#363636"/>
<path d="M163.471 24.5714V38.3929H172.063C182.479 38.3929 183.24 37.9321 183.24 31.4821C183.24 28.7179 182.86 26.9518 181.947 25.9536C180.807 24.6482 180.807 24.4946 181.947 23.1893C182.86 22.1911 183.24 20.425 183.24 17.5071C183.24 11.2875 182.403 10.75 171.987 10.75H163.471V24.5714ZM177.917 18.8125V21.5H173.355H168.793V18.8125V16.125H173.355H177.917V18.8125ZM177.917 30.3304V33.0179H173.355H168.793V30.3304V27.6429H173.355H177.917V30.3304Z" fill="#363636"/>
</svg>
