<svg width="389" height="615" viewBox="0 0 389 615" fill="none" xmlns="http://www.w3.org/2000/svg">
<path d="M99.7713 7.20703C99.0509 10.8105 97.4901 15.0146 96.5296 16.5762C94.4886 19.6992 86.0842 23.9033 82.0021 24.0234C80.4413 24.0234 79.2407 24.5039 79.2407 25.2246C79.2407 25.8252 80.5614 26.4258 82.2423 26.4258C86.4444 26.4258 94.3685 30.6299 96.5296 33.9932C97.6102 35.4346 99.0509 39.6387 99.7713 43.2422L101.332 49.8486L102.173 44.3232C103.493 35.915 106.375 31.3506 112.018 28.708C114.779 27.5068 118.501 26.4258 120.422 26.4258C122.223 26.4258 123.664 25.8252 123.664 25.2246C123.664 24.5039 122.223 24.0234 120.422 24.0234C118.501 24.0234 114.779 22.9424 112.018 21.7412C106.375 19.0986 103.493 14.5342 102.173 6.12598L101.332 0.600586L99.7713 7.20703Z" fill="#EFC69B" fill-opacity="0.4"/>
<path d="M26.5336 45.044C25.6932 49.0078 23.8923 53.9326 22.6917 56.0947C20.1704 60.1787 12.0062 64.8633 7.08365 64.9834C5.52285 64.9834 3.12161 65.4639 1.80093 66.0645C-0.240116 66.9053 -0.120055 67.1455 3.00155 67.1455C9.60494 67.3858 16.0883 69.9082 19.9303 73.752C23.412 77.2354 24.7327 80.1182 27.134 90.6885C27.9744 94.1719 27.9744 94.1719 28.8148 88.8867C30.9759 75.794 35.7784 70.5088 48.1448 67.9863L55.5886 66.5449L47.4244 64.5029C35.4182 61.5 30.9759 56.5752 29.0549 44.2031L28.0944 37.8369L26.5336 45.044Z" fill="#EFC69B" fill-opacity="0.4"/>
<path d="M174.33 66.1846C172.409 74.5928 169.047 77.9561 160.643 79.8779L154.279 81.3193L159.922 82.1602C167.966 83.3613 172.289 87.3252 174.21 95.2529L175.77 101.499L176.731 96.9346C178.772 87.2051 182.614 83.7217 193.9 81.3193C195.821 80.8389 195.821 80.7188 193.419 80.5986C191.739 80.5986 188.137 79.3975 185.375 77.9561C181.293 76.0342 179.852 74.4727 178.412 70.5088C177.451 67.7461 176.371 64.1426 176.251 62.4609C176.01 60.4189 175.41 61.6201 174.33 66.1846Z" fill="#EFC69B" fill-opacity="0.4"/>
<path d="M129.186 73.8721C128.106 76.3945 127.265 78.5567 127.265 78.7969C127.265 80.2383 116.94 95.9736 112.858 100.898C106.735 108.226 99.7713 113.03 96.5296 112.189C94.3685 111.589 93.8882 110.388 93.2879 104.622C93.0478 100.778 91.8472 96.0938 90.8867 94.0518C87.1648 86.9649 78.4003 86.124 69.5157 91.8897C63.9929 95.4932 61.2314 101.379 61.2314 109.787V116.634L65.6737 113.511C68.195 111.829 70.8364 110.508 71.6768 110.508C74.078 110.508 76.5993 116.514 79.1206 128.285C80.4413 134.291 82.6024 141.258 83.9231 143.9C89.446 154.831 100.612 161.678 114.059 162.639C121.022 163.119 121.983 163.48 123.423 166.242C125.705 170.687 130.147 173.449 133.869 172.488C140.112 170.927 150.437 158.795 153.799 149.065C154.88 145.822 154.76 144.861 153.079 142.939C151.278 140.897 149.357 140.537 140.832 140.537C134.229 140.537 130.867 140.057 130.867 139.216C130.867 138.375 133.028 134.411 135.55 130.327C142.513 119.396 144.434 112.31 143.834 101.139C143.234 91.4092 140.232 82.8809 134.109 73.8721L130.987 69.3076L129.186 73.8721ZM77.8 98.8565C78.2802 101.379 74.5583 103.061 73.2376 100.898C71.7969 98.6162 73.2376 95.8535 75.5188 96.334C76.5993 96.5742 77.5598 97.6553 77.8 98.8565Z" fill="#EFC69B" fill-opacity="0.4"/>
<path d="M39.6204 126.483C39.6204 129.727 50.1858 143.66 55.9488 147.984C63.6327 153.87 70.5963 156.152 80.6815 156.152H88.9657L86.0842 152.188C81.642 146.303 78.5204 139.456 76.8395 131.889C75.2787 125.042 75.2787 125.042 71.5568 125.883C66.3941 126.964 50.9062 126.964 44.783 125.763C40.821 125.162 39.6204 125.282 39.6204 126.483Z" fill="#EFC69B" fill-opacity="0.4"/>
<path d="M221.514 134.171C208.307 138.976 197.021 150.026 191.979 162.999C188.257 172.729 188.257 187.623 191.979 197.353C197.141 210.686 208.067 221.136 221.874 225.94C231.719 229.424 247.687 228.703 257.172 224.379C287.068 210.565 295.112 171.647 272.9 147.744C268.458 142.939 263.656 139.336 258.373 136.693C251.409 133.21 249.128 132.729 239.043 132.489C230.278 132.129 226.076 132.609 221.514 134.171ZM263.295 196.632C261.014 202.878 253.57 211.767 248.288 214.529C241.444 218.133 229.678 215.73 221.034 209.124L218.152 206.962L226.436 206.121C239.163 204.8 249.728 202.037 256.932 198.193C260.534 196.271 263.656 194.71 263.776 194.71C263.896 194.59 263.656 195.551 263.295 196.632Z" fill="#EFC69B" fill-opacity="0.4"/>
<path d="M56.9093 194.59C43.2223 196.512 36.0186 201.677 37.6994 208.403C38.78 212.848 46.2238 220.535 53.5476 224.98C58.23 227.742 59.7908 229.304 59.4306 230.745C59.0704 231.826 55.3485 242.156 51.1463 253.567L43.5825 274.468L45.8636 277.471C48.7451 281.194 60.5112 289.482 67.1146 292.365C71.4368 294.407 72.0371 295.128 72.0371 298.491C72.0371 307.26 82.0022 315.188 101.212 321.313C118.621 326.959 137.711 324.917 153.559 315.788C162.564 310.623 178.532 294.888 189.698 280.233C198.582 268.462 199.182 267.981 199.783 271.105C200.143 273.026 203.985 297.891 208.307 326.479L216.111 378.609V484.433C216.111 555.422 216.591 591.937 217.432 594.94C218.152 597.463 220.673 601.787 223.075 604.43C236.282 619.084 257.532 616.321 266.897 598.784C269.539 593.979 269.539 593.859 269.899 492.721L270.259 391.582H273.14C274.701 391.582 276.742 391.222 277.823 390.861C279.624 390.141 279.744 399.51 279.744 491.52V592.898L283.106 599.505C288.748 610.796 301.475 616.081 314.202 612.478C321.285 610.556 329.449 602.748 331.37 596.142C332.331 592.898 332.571 558.785 332.331 476.265L331.971 360.952L325.607 321.434C322.246 299.692 319.604 281.675 319.844 281.435C320.085 281.194 321.405 282.516 322.846 284.558C324.767 287.2 326.088 293.086 328.369 308.341C330.05 319.392 331.731 329.842 332.091 331.403C332.571 333.806 334.732 331.523 346.978 314.947C354.782 304.377 361.746 294.527 362.466 293.206C363.907 290.564 364.027 282.876 362.827 279.513C362.346 278.432 349.26 262.336 333.892 243.838C302.315 206.121 300.515 204.68 289.709 206.241C284.306 207.082 283.106 207.803 279.264 212.968L274.941 218.613V235.189C274.941 273.747 268.458 311.224 262.335 307.86C255.972 304.257 241.564 278.071 230.398 249.844C226.917 240.955 223.555 233.027 223.075 232.187C222.474 231.466 220.433 230.505 218.632 230.024C216.832 229.664 212.509 227.502 209.028 225.22C205.546 222.938 202.064 221.016 201.223 221.016C198.582 221.016 188.497 228.103 182.974 233.748C180.093 236.871 173.249 245.039 167.846 252.126C153.679 270.624 145.755 279.393 139.632 283.597C136.75 285.639 134.109 287.08 133.989 286.84C133.509 286.239 138.671 250.084 139.272 249.483C139.632 249.123 143.954 248.402 148.877 247.682C164.605 245.64 171.808 240.715 169.887 233.388C168.807 229.064 159.562 220.055 151.158 215.37C126.425 201.076 81.522 191.227 56.9093 194.59ZM100.852 207.082C142.153 216.571 162.083 233.268 128.106 230.145C100.492 227.622 62.4321 213.929 62.4321 206.481C62.4321 202.277 80.8016 202.518 100.852 207.082Z" fill="#EFC69B" fill-opacity="0.4"/>
<path d="M259.694 228.583L254.531 231.226L260.654 233.388C264.016 234.589 267.017 235.31 267.377 234.949C268.218 234.108 266.657 225.82 265.577 225.82C265.096 225.94 262.455 227.142 259.694 228.583Z" fill="#EFC69B" fill-opacity="0.4"/>
<path d="M233.4 235.67C233.76 237.231 234.12 239.153 234.12 239.874C234.12 242.276 235.561 241.676 240.604 237.231L245.286 233.027H238.923C233.04 233.027 232.68 233.147 233.4 235.67Z" fill="#EFC69B" fill-opacity="0.4"/>
<path d="M248.888 244.559C247.928 247.201 250.089 250.444 252.73 250.444C253.931 250.444 255.371 249.604 256.092 248.522C257.893 245.64 256.212 242.637 252.73 242.637C250.929 242.637 249.368 243.478 248.888 244.559Z" fill="#EFC69B" fill-opacity="0.4"/>
<path d="M252.01 258.973C249.969 261.495 252.01 264.858 255.852 264.858C258.013 264.858 258.853 264.138 259.093 261.976C259.814 257.411 255.011 255.369 252.01 258.973Z" fill="#EFC69B" fill-opacity="0.4"/>
<path d="M255.731 275.669C253.45 278.432 254.771 281.675 258.373 282.035C260.654 282.275 261.735 281.795 262.335 279.873C263.776 275.188 258.853 271.945 255.731 275.669Z" fill="#EFC69B" fill-opacity="0.4"/>
<path d="M189.337 423.653C179.012 457.286 170.488 485.153 170.488 485.634C170.488 486.354 186.456 491.52 202.664 495.964L211.429 498.366L210.948 433.863C210.708 396.747 210.108 367.919 209.388 365.997C208.427 362.994 205.906 370.201 189.337 423.653Z" fill="#EFC69B" fill-opacity="0.4"/>
<path d="M337.373 427.978C337.373 463.412 337.734 492.48 338.094 492.48C341.576 492.48 389.36 470.019 388.64 468.817C388.28 468.337 376.874 444.554 363.187 416.206C349.5 387.738 338.094 364.315 337.854 364.075C337.614 363.835 337.373 392.543 337.373 427.978Z" fill="#EFC69B" fill-opacity="0.4"/>
</svg>
